Coordinates
version=1
nRows=5
nColumns=63
inDegrees=yes

Units are S.I. units (second, meters, Newtons, ...)
If the header above contains a line with 'inDegrees', this indicates whether rotational values are in degrees (yes) or radians (no).

endheader
time	pelvis_tilt	pelvis_list	pelvis_rotation	pelvis_tx	pelvis_ty	pelvis_tz	hip_flexion_r	hip_adduction_r	hip_rotation_r	knee_angle_r	knee_angle_r_beta	ankle_angle_r	subtalar_angle_r	mtp_angle_r	hip_flexion_l	hip_adduction_l	hip_rotation_l	knee_angle_l	knee_angle_l_beta	ankle_angle_l	subtalar_angle_l	mtp_angle_l	L5_S1_Flex_Ext	L5_S1_Lat_Bending	L5_S1_axial_rotation	L4_L5_Flex_Ext	L4_L5_Lat_Bending	L4_L5_axial_rotation	L3_L4_Flex_Ext	L3_L4_Lat_Bending	L3_L4_axial_rotation	L2_L3_Flex_Ext	L2_L3_Lat_Bending	L2_L3_axial_rotation	L1_L2_Flex_Ext	L1_L2_Lat_Bending	L1_L2_axial_rotation	L1_T12_Flex_Ext	L1_T12_Lat_Bending	L1_T12_axial_rotation	Abs_r3	Abs_r2	Abs_r1	Abs_t1	Abs_t2	neck_flexion	neck_bending	neck_rotation	arm_flex_r	arm_add_r	arm_rot_r	elbow_flex_r	pro_sup_r	wrist_flex_r	wrist_dev_r	arm_flex_l	arm_add_l	arm_rot_l	elbow_flex_l	pro_sup_l	wrist_flex_l	wrist_dev_l
      3.20338983	     -5.01613519	      1.89338812	     76.93534860	      0.25599502	      0.62127320	      0.69390165	      4.96936790	     -3.73181651	     -0.43713059	     14.18149645	      0.24751381	     16.61028331	      9.30025368	      0.00000000	      0.55459471	      4.46247003	    -13.87062738	      6.82331333	      0.11908928	     12.21286201	    -10.82428720	      0.00000000	     -0.00762335	     -0.57464011	      2.17064121	     -0.01415732	     -0.76427134	      2.30630628	     -0.01252440	     -1.39717996	      2.30630628	     -0.00871272	     -1.39717996	      1.89931105	     -0.00707904	     -1.17180611	      1.76364598	     -0.00435598	     -0.89011753	      1.62798090	     -0.05445281	     -6.50044382	     12.07245519	      0.00000000	      0.00000000	     14.02665933	      5.96919769	      3.04968747	     -2.63729541	     -8.61861667	     -4.91290667	     84.59053017	     87.24799344	     -8.01932095	      5.42932777	     -3.89168031	    -10.21348449	    -17.32343879	     85.92344204	     83.57138699	     -8.06040529	     10.22494955
      3.22033898	     -4.91960676	      1.84885129	     76.93175705	      0.25592564	      0.62123082	      0.69405544	      4.96470453	     -3.70476826	     -1.09580019	     14.03646299	      0.24498249	     16.90883819	     10.46188369	      0.00000000	      0.46406204	      4.30553689	    -14.79859242	      6.59177096	      0.11504811	     12.87531004	     -9.09931655	      0.00000000	     -0.01009584	     -0.56367794	      2.19085594	     -0.01874899	     -0.74969166	      2.32778443	     -0.01658646	     -1.37052655	      2.32778443	     -0.01153854	     -1.37052655	      1.91699894	     -0.00937500	     -1.14945206	      1.78007045	     -0.00576877	     -0.87313713	      1.64314195	     -0.07211361	     -6.37643762	     12.18488346	      0.00000000	      0.00000000	     14.12673512	      5.90311854	      2.78576845	     -2.78241703	     -8.76543393	     -4.79698352	     84.62696038	     87.29810346	     -8.21443779	      5.15992052	     -3.76342971	    -10.44852107	    -16.86106730	     85.86301676	     84.34253462	     -8.41823412	     10.49479474
      3.23728814	     -4.81480450	      1.77708072	     77.07646109	      0.25574611	      0.62110162	      0.69424997	      4.92320831	     -3.58249383	     -1.27153080	     13.72470895	      0.23954136	     17.26659424	     10.85593872	      0.00000000	      0.41674784	      4.15591886	    -15.21024670	      6.35656668	      0.11094302	     13.32603369	     -8.11842591	      0.00000000	     -0.01576314	     -0.55236593	      2.16259111	     -0.02927373	     -0.73464668	      2.29775306	     -0.02589727	     -1.34302252	      2.29775306	     -0.01801570	     -1.34302252	      1.89226722	     -0.01463766	     -1.12638460	      1.75710528	     -0.00900706	     -0.85561482	      1.62194334	     -0.11259456	     -6.24847384	     12.02768300	      0.00000000	      0.00000000	     14.37109511	      5.62912159	      2.39274637	     -2.78012225	     -8.82954595	     -4.71064931	     84.53775831	     87.52194783	     -8.12061693	      4.78734030	     -3.82420727	    -10.76412932	    -16.43821947	     85.82044924	     84.26273437	     -8.45890142	     10.01262302
      3.25423729	     -4.74064358	      1.65711591	     77.35265660	      0.25546060	      0.62094084	      0.69467138	      4.92022327	     -3.45321719	     -1.28392230	     13.31983944	      0.23247505	     17.60843312	     10.98622077	      0.00000000	      0.46402885	      4.01852604	    -15.61134167	      6.15113000	      0.10735747	     13.76956415	     -6.97292024	      0.00000000	     -0.02447642	     -0.54603601	      2.11483052	     -0.04545515	     -0.72622790	      2.24700743	     -0.04021231	     -1.32763196	      2.24700743	     -0.02797410	     -1.32763196	      1.85047671	     -0.02272880	     -1.11347663	      1.71829980	     -0.01398582	     -0.84580978	      1.58612289	     -0.17483260	     -6.17686857	     11.76205291	      0.00000000	      0.00000000	     14.78906426	      5.31674813	      1.85149754	     -2.68806612	     -8.87753863	     -4.60594077	     84.44051679	     87.60899199	     -8.20189541	      4.63247829	     -3.98312599	    -11.19024872	    -15.94101262	     85.85973525	     84.99010893	     -8.43707426	      9.67965764
      3.27118644	     -4.63424264	      1.54372060	     77.78441120	      0.25480433	      0.62085120	      0.69519564	      4.86489724	     -3.30996718	     -1.35371848	     12.85263992	      0.22432088	     17.86376860	     10.96332098	      0.00000000	      0.54500544	      3.85381707	    -15.75013380	      5.99958408	      0.10471250	     14.14389723	     -6.00543727	      0.00000000	     -0.03965856	     -0.53116126	      2.02787243	     -0.07364990	     -0.70644447	      2.15461446	     -0.06515504	     -1.29146549	      2.15461446	     -0.04532576	     -1.29146549	      1.77438838	     -0.03682693	     -1.08314404	      1.64764635	     -0.02266090	     -0.82276879	      1.52090432	     -0.28327709	     -6.00860239	     11.27841810	      0.00000000	      0.00000000	     15.28907613	      5.03952180	      1.56654546	     -2.48538511	     -8.84974989	     -4.60896760	     84.29589393	     87.87941097	     -8.10555788	      4.74868073	     -4.36191186	    -11.59696271	    -15.46257040	     85.97586399	     85.18844844	     -8.18400467	      9.42497121
